g Tornado1
v -0.003416191 0.004259593 0.01066292
v -0.001911292 0.005279649 0.01066292
v -0.002752133 0.006036606 0.01502216
v -0.004296298 0.004990734 0.01502216
v -0.0009317011 0.006407408 0.01502216
v -0.0001365105 0.00564217 0.01066292
v 0.000887398 0.006046633 0.01502216
v 0.001638118 0.005291875 0.01066292
v -0.004421907 0.002737404 0.01066292
v -0.005329206 0.003434812 0.01502216
v -0.00477555 0.0009564107 0.01066292
v -0.00569361 0.001610117 0.01502216
v -0.004423107 -0.0008132959 0.01066292
v -0.005334188 -0.000211371 0.01502216
v -0.003418138 -0.002301245 0.01066292
v -0.004305603 -0.001746534 0.01502216
v -0.001913521 -0.003292501 0.01066292
v -0.00276318 -0.002766061 0.01502216
v -0.0009435135 -0.00312053 0.01502216
v -0.0001382278 -0.003636258 0.01066292
v 0.003142542 0.004282052 0.01066292
v 0.00242957 0.005015003 0.01502216
v 0.003458602 0.003474106 0.01502216
v 0.004147844 0.002778383 0.01066292
v 0.003818389 0.001652647 0.01502216
v 0.00450106 0.001004906 0.01066292
v 0.003454127 -0.0001720794 0.01502216
v 0.004147522 -0.0007723182 0.01066292
v 0.002421241 -0.001722269 0.01502216
v 0.003141749 -0.002278789 0.01066292
v 0.0008770004 -0.002756035 0.01502216
v 0.001636903 -0.003280277 0.01066292
v -0.0009435135 -0.00312053 0.01502216
v -0.0001382278 -0.003636258 0.01066292
v 0.002506996 0.00427994 0.02007322
v 0.001377865 0.005967459 0.02007322
v 0.002017643 0.004818531 0.02556198
v 0.0007501844 0.006710049 0.02556198
v 0.002464194 0.002587331 0.02556198
v 0.002903829 0.002288233 0.02007322
v 0.002021839 0.0003561319 0.02556198
v 0.002507906 0.0002955569 0.02007322
v 0.0007579034 -0.001535389 0.02556198
v 0.001379463 -0.001394722 0.02007322
v -0.001135199 -0.002799262 0.02556198
v -0.0003097206 -0.002525272 0.02007322
v -0.0003116468 0.007093881 0.02007322
v -0.001145217 0.00797392 0.02556198
v -0.002304335 0.00748772 0.02007322
v -0.003380002 0.008417729 0.02556198
v -0.004296888 0.007089021 0.02007322
v -0.005613982 0.007973916 0.02556198
v -0.005985992 0.00595848 0.02007322
v -0.007507061 0.006710043 0.02556198
v -0.007114513 0.00426821 0.02007322
v -0.00877104 0.004818524 0.02556198
v -0.00751063 0.002275537 0.02007322
v -0.009213486 0.002587326 0.02556198
v -0.007113993 0.0002838284 0.02007322
v -0.008767013 0.0003561281 0.02556198
v -0.005984945 -0.001403699 0.02007322
v -0.00749958 -0.001535391 0.02556198
v -0.004295355 -0.00253013 0.02007322
v -0.005604136 -0.002799265 0.02556198
v -0.002302467 -0.002923974 0.02007322
v -0.003369256 -0.003243077 0.02556198
v -0.008032882 -0.002670297 0.03154507
v -0.005783145 -0.004176766 0.03154507
v -0.007737891 -0.004212086 0.03669086
v -0.009512773 -0.001558778 0.03669086
v -0.009536108 -0.0004183887 0.03154507
v -0.01013953 0.001563376 0.03669086
v -0.01006397 0.002236118 0.03154507
v -0.009522805 0.004679033 0.03669086
v -0.009536106 0.004889099 0.03154507
v -0.007756572 0.007313887 0.03669086
v -0.008032882 0.007136664 0.03154507
v -0.005085073 -0.005992541 0.03669086
v -0.005109754 0.00906687 0.03669086
v -0.005783147 0.008636645 0.03154507
v -0.00198528 0.009671171 0.03669086
v -0.003129402 0.009160688 0.03154507
v 0.001141233 0.009034818 0.03669086
v -0.0004756668 0.008629016 0.03154507
v 0.001774072 0.007122565 0.03154507
v 0.003793895 0.007254658 0.03669086
v 0.005568876 0.004601642 0.03669086
v 0.003277301 0.004870676 0.03154507
v 0.006195932 0.001479606 0.03669086
v 0.003805167 0.002216175 0.03154507
v 0.005579537 -0.001636173 0.03669086
v 0.003277306 -0.0004368146 0.03154507
v 0.003813462 -0.004271321 0.03669086
v 0.001774081 -0.002684399 0.03154507
v 0.001166546 -0.006024597 0.03669086
v -0.0004756543 -0.004184398 0.03154507
v -0.001958226 -0.006629018 0.03669086
v -0.003129399 -0.004708449 0.03154507
v -0.003369256 -0.003243077 0.02556198
v -0.002302467 -0.002923974 0.02007322
v 0.002484213 0.005999108 0
v 0.002200986 0.004980319 0.005762164
v 0.0002411656 0.005368851 0.005762164
v -2.989069E-10 0.006493265 0
v 0.003862451 0.003867054 0.005762164
v 0.004590237 0.004591608 0
v 0.005997439 0.002485591 0
v 0.004972606 0.002205633 0.005762164
v 0.006491584 1.420752E-06 0
v 0.005362442 0.0002468989 0.005762164
v 0.005997444 -0.002482855 0
v 0.00497261 -0.001714024 0.005762164
v 0.004590246 -0.004588882 0
v 0.003862457 -0.003375528 0.005762164
v 0.002484224 -0.005995778 0
v 0.002200996 -0.004482569 0.005762164
v 1.81632E-09 -0.006489903 0
v 0.0002411673 -0.004873703 0.005762164
v -0.001718662 0.004973527 0.005762164
v -0.002484222 0.005998848 0
v -0.003380124 0.003854609 0.005762164
v -0.004590244 0.00459118 0
v -0.004490277 0.002182541 0.005762164
v -0.005997443 0.00248465 0
v -0.004880111 0.0002186942 0.005762164
v -0.006491584 3.024687E-07 0
v -0.004490278 -0.001737114 0.005762164
v -0.005997443 -0.002483792 0
v -0.003380124 -0.00338797 0.005762164
v -0.004590244 -0.004589307 0
v -0.001718662 -0.00448936 0.005762164
v -0.002484221 -0.005996037 0
v 0.006476432 0.007896183 0.04215892
v 0.008815428 0.009075584 0.04771121
v 0.004663579 0.01184625 0.04771121
v 0.003126141 0.01013915 0.04215892
v -0.0008119468 0.01094664 0.04215892
v -0.0002259606 0.01282831 0.04771121
v -0.004749667 0.01019106 0.04215892
v -0.005110056 0.01187248 0.04771121
v 0.01160183 0.004937673 0.04771121
v 0.008730771 0.004556348 0.04215892
v 0.01259235 6.201789E-05 0.04771121
v 0.009531965 0.0006278547 0.04215891
v 0.01163691 -0.004809292 0.04771121
v 0.008765276 -0.003291324 0.04215891
v 0.008883248 -0.008934457 0.04771121
v 0.006547471 -0.006604425 0.04215891
v 0.004751076 -0.011685 0.04771121
v 0.003216209 -0.008806806 0.04215891
v -0.008081011 0.007987193 0.04215892
v -0.009242329 0.009124062 0.04771121
v -0.01029877 0.00467527 0.04215892
v -0.01199369 0.005001029 0.04771121
v -0.01106535 0.0007565802 0.04215892
v -0.01294694 0.0001306039 0.04771121
v -0.01026939 -0.003172399 0.04215892
v -0.01195855 -0.00474593 0.04771121
v -0.008022463 -0.006513409 0.04215892
v -0.009172793 -0.008885973 0.04771121
v -0.00466601 -0.008754891 0.04215891
v -0.005019023 -0.01165877 0.04771121
v -0.0001305595 -0.01264172 0.04771121
v -0.000721496 -0.00956031 0.04215891
v -0.005985749 -0.01445089 0.0537208
v 5.39078E-09 -0.01564153 0.0537208
v -0.01106023 0.01106022 0.0537208
v -0.005985752 0.01445088 0.0537208
v -0.01445088 0.00598575 0.0537208
v -0.01564152 -3.803745E-10 0.0537208
v -0.01445088 -0.00598575 0.0537208
v -0.01106023 -0.01106023 0.0537208
v -0.000721496 -0.00956031 0.04215891
v -0.0001305595 -0.01264172 0.04771121
v 5.39078E-09 -0.01564153 0.0537208
v 0.005985759 -0.01445088 0.0537208
v 0.01106023 -0.01106022 0.0537208
v 0.01445089 -0.005985741 0.0537208
v 0.01564152 1.354216E-08 0.0537208
v 0.01445088 0.005985767 0.0537208
v 0.01106021 0.01106024 0.0537208
v 0.005985731 0.01445089 0.0537208
v 2.941249E-10 0.01564152 0.0537208
v -0.001958226 -0.006629018 0.03669086
v -0.003129399 -0.004708449 0.03154507
v 0.0002411673 -0.004873703 0.005762164
v 1.81632E-09 -0.006489903 0
vt 0.3750513 0.8069335
vt 0.4375108 0.8069335
vt 0.4375108 0.7273042
vt 0.3750512 0.7273042
vt 0.5000075 0.7273042
vt 0.5000075 0.8069335
vt 0.5625465 0.7273042
vt 0.5625465 0.8069335
vt 0.3126004 0.8069335
vt 0.3126004 0.7273042
vt 0.2501579 0.8069335
vt 0.2501579 0.7273042
vt 0.1876899 0.8069335
vt 0.1876899 0.7273042
vt 0.1251893 0.8069335
vt 0.1251893 0.7273042
vt 0.06263337 0.8069335
vt 0.06263337 0.7273041
vt 1.171233E-05 0.7273041
vt 1.171233E-05 0.8069335
vt 0.6251341 0.8069335
vt 0.6251341 0.7273042
vt 0.68769 0.7273042
vt 0.68769 0.8069335
vt 0.7501712 0.7273042
vt 0.7501712 0.8069335
vt 0.8126041 0.7273042
vt 0.8126041 0.8069335
vt 0.8750104 0.7273042
vt 0.8750104 0.8069335
vt 0.9374248 0.7273042
vt 0.9374248 0.8069335
vt 0.9999806 0.7273042
vt 0.9999806 0.8069335
vt 0.68769 0.6332805
vt 0.6251341 0.6332805
vt 0.68769 0.5329143
vt 0.6251341 0.5329143
vt 0.7501712 0.5329143
vt 0.7501712 0.6332805
vt 0.8126042 0.5329143
vt 0.8126041 0.6332805
vt 0.8750104 0.5329143
vt 0.8750104 0.6332805
vt 0.9374248 0.5329143
vt 0.9374248 0.6332805
vt 0.5625465 0.6332805
vt 0.5625465 0.5329143
vt 0.5000075 0.6332805
vt 0.5000075 0.5329143
vt 0.4375109 0.6332805
vt 0.4375109 0.5329143
vt 0.3750513 0.6332805
vt 0.3750513 0.5329143
vt 0.3126004 0.6332805
vt 0.3126005 0.5329143
vt 0.2501579 0.6332805
vt 0.2501579 0.5329143
vt 0.18769 0.6332805
vt 0.18769 0.5329143
vt 0.1251894 0.6332805
vt 0.1251894 0.5329143
vt 0.06263342 0.6332804
vt 0.06263342 0.5329142
vt 1.177193E-05 0.6332804
vt 1.177193E-05 0.5329142
vt 0.1251894 0.4248329
vt 0.06263342 0.4248329
vt 0.1251894 0.3278636
vt 0.18769 0.3278636
vt 0.18769 0.4248329
vt 0.2501579 0.3278636
vt 0.2501579 0.4248329
vt 0.3126004 0.3278636
vt 0.3126005 0.4248329
vt 0.3750513 0.3278637
vt 0.3750513 0.4248329
vt 0.06263342 0.3278636
vt 0.4375109 0.3278636
vt 0.4375109 0.4248329
vt 0.5000075 0.3278636
vt 0.5000075 0.4248329
vt 0.5625465 0.3278636
vt 0.5625465 0.4248329
vt 0.6251341 0.4248329
vt 0.6251341 0.3278636
vt 0.6876901 0.3278637
vt 0.6876901 0.424833
vt 0.7501712 0.3278637
vt 0.7501712 0.424833
vt 0.8126042 0.3278638
vt 0.8126042 0.424833
vt 0.8750105 0.3278637
vt 0.8750104 0.424833
vt 0.9374248 0.3278637
vt 0.9374248 0.4248329
vt 0.9999806 0.3278638
vt 0.9999806 0.4248329
vt 0.9999806 0.5329143
vt 0.9999806 0.6332805
vt 0.5625465 0.9999978
vt 0.5625465 0.8950274
vt 0.5000075 0.8950274
vt 0.5000075 0.9999978
vt 0.6251341 0.8950275
vt 0.6251341 0.9999979
vt 0.68769 0.9999979
vt 0.68769 0.8950275
vt 0.7501712 0.9999979
vt 0.7501712 0.8950275
vt 0.8126041 0.9999979
vt 0.8126041 0.8950275
vt 0.8750104 0.9999979
vt 0.8750104 0.8950275
vt 0.9374248 0.9999979
vt 0.9374248 0.8950275
vt 0.9999806 0.9999979
vt 0.9999806 0.8950275
vt 0.4375108 0.8950274
vt 0.4375108 0.9999978
vt 0.3750512 0.8950274
vt 0.3750512 0.9999978
vt 0.3126004 0.8950274
vt 0.3126005 0.9999978
vt 0.2501579 0.8950274
vt 0.2501579 0.9999978
vt 0.1876899 0.8950274
vt 0.1876899 0.9999978
vt 0.1251893 0.8950274
vt 0.1251893 0.9999978
vt 0.06263337 0.8950274
vt 0.06263337 0.9999978
vt 0.6251341 0.223649
vt 0.6251341 0.1178774
vt 0.5625465 0.1178774
vt 0.5625465 0.223649
vt 0.5000075 0.223649
vt 0.5000075 0.1178774
vt 0.4375109 0.223649
vt 0.4375109 0.1178774
vt 0.6876901 0.1178775
vt 0.6876901 0.2236491
vt 0.7501712 0.1178775
vt 0.7501712 0.2236491
vt 0.8126042 0.1178775
vt 0.8126042 0.2236491
vt 0.8750105 0.1178776
vt 0.8750105 0.2236491
vt 0.9374248 0.1178775
vt 0.9374248 0.2236491
vt 0.3750513 0.223649
vt 0.3750513 0.1178774
vt 0.3126004 0.223649
vt 0.3126005 0.1178775
vt 0.2501579 0.223649
vt 0.2501579 0.1178774
vt 0.18769 0.223649
vt 0.18769 0.1178774
vt 0.1251894 0.223649
vt 0.1251894 0.1178774
vt 0.06263342 0.223649
vt 0.06263342 0.1178774
vt 1.177193E-05 0.1178776
vt 1.177193E-05 0.2236489
vt 0.06263342 8.642688E-06
vt 1.177193E-05 8.702293E-06
vt 0.3750513 8.642688E-06
vt 0.4375109 8.642688E-06
vt 0.3126005 8.702293E-06
vt 0.2501579 8.642688E-06
vt 0.18769 8.642688E-06
vt 0.1251894 8.642688E-06
vt 0.9999806 0.2236489
vt 0.9999806 0.1178777
vt 0.9999806 8.761897E-06
vt 0.9374248 8.702293E-06
vt 0.8750105 8.702293E-06
vt 0.8126042 8.761897E-06
vt 0.7501712 8.702293E-06
vt 0.6876902 8.702293E-06
vt 0.6251341 8.642688E-06
vt 0.5625466 8.642688E-06
vt 0.5000076 8.642688E-06
vt 1.177193E-05 0.3278637
vt 1.177193E-05 0.4248329
vt 1.171233E-05 0.8950274
vt 1.171233E-05 0.9999977
vn -0.6980326 0.6977274 -0.1610187
vn -0.3771306 0.9136345 -0.1518044
vn -0.3673538 0.8923977 -0.2620642
vn -0.6731915 0.674748 -0.3025364
vn 0.004150602 0.9818615 -0.1895543
vn 0.004120075 0.9934875 -0.1138667
vn 0.3854522 0.9178523 -0.09473029
vn 0.3879344 0.9201961 -0.05240213
vn -0.9145072 0.3791703 -0.1410902
vn -0.878687 0.365471 -0.3071482
vn -0.9955348 -3.051915E-05 -0.09439574
vn -0.9613196 0.0007019383 -0.2754345
vn -0.921975 -0.3863383 -0.02655141
vn -0.9023703 -0.3765192 -0.209669
vn -0.6999617 -0.7123221 0.05148618
vn -0.6974546 -0.706885 -0.1177735
vn -0.3702252 -0.9203596 0.1259822
vn -0.3749575 -0.9269257 -0.01467968
vn 0.006897237 -0.9966507 0.08148506
vn 0.008484174 -0.9827299 0.1848513
vn 0.710326 0.7035202 0.02227875
vn 0.7091168 0.7050576 0.00686685
vn 0.9194036 0.3807933 0.09845629
vn 0.9199994 0.3793834 0.09833267
vn 0.9861712 0.00183116 0.16572
vn 0.986484 0.001068152 0.1638545
vn 0.9067008 -0.3715737 0.1995664
vn 0.9047897 -0.3708945 0.2092672
vn 0.6964811 -0.6902551 0.1961171
vn 0.6916065 -0.6850448 0.2288976
vn 0.382654 -0.9107642 0.1551919
vn 0.3786175 -0.8989342 0.220377
vn 0.006897237 -0.9966507 0.08148506
vn 0.008484174 -0.9827299 0.1848513
vn 0.9186555 0.3875316 0.07675555
vn 0.7023103 0.7118627 -0.003418162
vn 0.916098 0.3934854 -0.07703074
vn 0.6926924 0.7150934 -0.09390733
vn 0.9974096 0.007812767 -0.07150514
vn 0.9916047 0.004761021 0.129219
vn 0.9215308 -0.3803012 -0.07843465
vn 0.9149175 -0.3761545 0.1464027
vn 0.7000387 -0.7075463 -0.09656127
vn 0.7015215 -0.7013689 0.1262898
vn 0.3697974 -0.9209686 -0.122747
vn 0.3797155 -0.922371 0.07104787
vn 0.3758149 0.921531 -0.09769235
vn 0.3651292 0.9233522 -0.1187494
vn -0.003692847 0.9818394 -0.189678
vn -0.01367256 0.9890631 -0.1468579
vn -0.3707822 0.890164 -0.2648182
vn -0.385639 0.9061723 -0.1735925
vn -0.6714008 0.6714924 -0.3135584
vn -0.6965172 0.6903828 -0.1955387
vn -0.8709543 0.3627501 -0.3314375
vn -0.9027375 0.3751767 -0.2104933
vn -0.9483584 0.002899338 -0.3171876
vn -0.9761403 0.006317368 -0.2170489
vn -0.8904327 -0.3652861 -0.2714696
vn -0.906479 -0.3638795 -0.2142137
vn -0.695263 -0.6908987 -0.1981626
vn -0.7022884 -0.6827558 -0.2015825
vn -0.3832873 -0.9174602 -0.1065721
vn -0.3903443 -0.9028887 -0.180065
vn -0.00308244 -0.9999315 -0.01129211
vn -0.0141608 -0.9882345 -0.1522896
vn -0.7043266 -0.6873578 -0.1773787
vn -0.3844543 -0.8918412 -0.2383574
vn -0.6865709 -0.6842514 -0.2458056
vn -0.9120987 -0.3778285 -0.1591274
vn -0.920335 -0.3721198 -0.120459
vn -0.9957716 -0.0003051893 -0.09186198
vn -0.9970669 0.00418115 -0.07642044
vn -0.9220091 0.3830743 -0.05615493
vn -0.9226011 0.3823164 -0.05139465
vn -0.7035552 0.7082858 -0.05780305
vn -0.7087122 0.7038291 -0.04849468
vn -0.3642159 -0.8686675 -0.3358026
vn -0.3765507 0.9213559 -0.09650294
vn -0.387934 0.9191574 -0.06824172
vn 0.004150642 0.9861743 -0.1656595
vn -0.009369375 0.9940694 -0.1083429
vn 0.3716919 0.8932936 -0.2527286
vn 0.36721 0.9157056 -0.163218
vn 0.6810694 0.6970615 -0.2241645
vn 0.6630251 0.6658633 -0.3420873
vn 0.8371314 0.3512106 -0.4193591
vn 0.883005 0.3758715 -0.2811101
vn 0.880389 0.003570754 -0.4742388
vn 0.9456769 0.00540195 -0.3250631
vn 0.7995808 -0.3298549 -0.5018629
vn 0.8654869 -0.3583535 -0.3500218
vn 0.6105625 -0.6134618 -0.5008773
vn 0.6577187 -0.6654705 -0.3529237
vn 0.3330815 -0.816712 -0.4712093
vn 0.3512114 -0.8749766 -0.3332663
vn -0.005645978 -0.9100706 -0.4144148
vn -0.01336736 -0.9559492 -0.2932273
vn -0.0141608 -0.9882345 -0.1522896
vn -0.00308244 -0.9999315 -0.01129211
vn 0.3742286 0.9098133 0.1794234
vn 0.3902732 0.9167817 0.084842
vn 0.005859623 0.9975398 0.06985769
vn -0.005554418 0.9813924 0.1919326
vn 0.7098819 0.6952936 0.112403
vn 0.696397 0.6959086 0.1753353
vn 0.9098169 0.3739555 0.1799735
vn 0.9170249 0.3706005 0.1473795
vn 0.9812878 -0.004852573 0.1924854
vn 0.9828859 -0.00595115 0.1841194
vn 0.9006799 -0.3798714 0.2108871
vn 0.9008044 -0.3759964 0.2172051
vn 0.6827998 -0.6927185 0.2322185
vn 0.6862596 -0.6857713 0.2424158
vn 0.3644263 -0.8961879 0.2530628
vn 0.3734617 -0.8914311 0.2566653
vn -0.003845393 -0.9628437 0.270032
vn 0.008270698 -0.9661152 0.2579786
vn -0.3806084 0.922024 0.07077467
vn -0.3811273 0.9001415 0.2109201
vn -0.7063736 0.7024671 0.08704158
vn -0.6933115 0.6820193 0.2327417
vn -0.9196553 0.375504 0.1150256
vn -0.8961992 0.3642478 0.2532796
vn -0.9886467 -0.007019471 0.1500946
vn -0.9629957 -0.004303175 0.2694825
vn -0.903555 -0.3853675 0.1872971
vn -0.8858488 -0.3700446 0.2798911
vn -0.680917 -0.6982519 0.220899
vn -0.6771017 -0.6789634 0.2837992
vn -0.360398 -0.8998811 0.2456163
vn -0.3683098 -0.8863484 0.2805966
vn 0.6483809 0.6454816 -0.4036778
vn 0.6414566 0.6363599 -0.4284618
vn 0.3552681 0.8437808 -0.4022669
vn 0.3662913 0.866165 -0.3399837
vn 0.009827048 0.960426 -0.2783618
vn 0.005432323 0.9266078 -0.37599
vn -0.3640363 0.9023694 -0.2306662
vn -0.3544502 0.8648536 -0.3555184
vn 0.8255058 0.3396754 -0.4507337
vn 0.8199883 0.3412955 -0.4594961
vn 0.884192 -0.001434386 -0.4671214
vn 0.8656178 0.002533098 -0.500699
vn 0.8115366 -0.3374816 -0.4769849
vn 0.7875465 -0.3242659 -0.5240442
vn 0.6195347 -0.6210606 -0.4800631
vn 0.6003433 -0.6002823 -0.5284401
vn 0.3360194 -0.812642 -0.4761343
vn 0.3271924 -0.793215 -0.513571
vn -0.6881939 0.6953047 -0.2072211
vn -0.6634234 0.6633319 -0.3462082
vn -0.9027236 0.3735534 -0.2134199
vn -0.8666838 0.3546329 -0.3508485
vn -0.9687812 -0.004333772 -0.2478795
vn -0.9297309 -0.006561585 -0.3681813
vn -0.878155 -0.3700129 -0.3032067
vn -0.8464473 -0.3584774 -0.3937269
vn -0.6540909 -0.6610493 -0.3676668
vn -0.6368105 -0.6455695 -0.4215597
vn -0.343763 -0.835084 -0.4294901
vn -0.3391567 -0.8280697 -0.4464002
vn 0.000946095 -0.8853312 -0.4649599
vn -0.0007629886 -0.8773454 -0.4798588
vn -0.3413895 -0.8304622 -0.4402111
vn 0.001068165 -0.8947865 -0.4464929
vn -0.6454806 0.6478305 -0.4045622
vn -0.3451086 0.8431783 -0.4122503
vn -0.8457841 0.3490199 -0.4035275
vn -0.9123977 -0.003357096 -0.4092911
vn -0.8369673 -0.3513713 -0.4195519
vn -0.6353766 -0.6408395 -0.4308378
vn -0.0007629886 -0.8773454 -0.4798588
vn 0.000946095 -0.8853312 -0.4649599
vn 0.001068165 -0.8947865 -0.4464929
vn 0.3420888 -0.8248402 -0.4501265
vn 0.6309488 -0.6305215 -0.4520467
vn 0.8238418 -0.34078 -0.4529389
vn 0.8916698 0.0003051887 -0.4526863
vn 0.8249938 0.3412347 -0.4504932
vn 0.6346469 0.6317781 -0.4450616
vn 0.347864 0.8301064 -0.4357913
vn 0.004486341 0.9056916 -0.4239135
vn -0.005645978 -0.9100706 -0.4144148
vn -0.01336736 -0.9559492 -0.2932273
vn 0.008270698 -0.9661152 0.2579786
vn -0.003845393 -0.9628437 0.270032
g Tornado1_0
f 3/3/3 2/2/2 1/1/1
f 4/4/4 3/3/3 1/1/1
f 3/3/3 5/5/5 2/2/2
f 5/5/5 6/6/6 2/2/2
f 5/5/5 7/7/7 6/6/6
f 7/7/7 8/8/8 6/6/6
f 4/4/4 1/1/1 9/9/9
f 10/10/10 4/4/4 9/9/9
f 10/10/10 9/9/9 11/11/11
f 12/12/12 10/10/10 11/11/11
f 12/12/12 11/11/11 13/13/13
f 14/14/14 12/12/12 13/13/13
f 14/14/14 13/13/13 15/15/15
f 16/16/16 14/14/14 15/15/15
f 16/16/16 15/15/15 17/17/17
f 18/18/18 16/16/16 17/17/17
f 19/19/19 18/18/18 17/17/17
f 20/20/20 19/19/19 17/17/17
f 8/8/8 7/7/7 21/21/21
f 7/7/7 22/22/22 21/21/21
f 22/22/22 23/23/23 21/21/21
f 23/23/23 24/24/24 21/21/21
f 23/23/23 25/25/25 24/24/24
f 25/25/25 26/26/26 24/24/24
f 25/25/25 27/27/27 26/26/26
f 27/27/27 28/28/28 26/26/26
f 27/27/27 29/29/29 28/28/28
f 29/29/29 30/30/30 28/28/28
f 29/29/29 31/31/31 30/30/30
f 31/31/31 32/32/32 30/30/30
f 31/31/31 33/33/33 32/32/32
f 33/33/33 34/34/34 32/32/32
f 35/35/35 23/23/23 22/22/22
f 36/36/36 35/35/35 22/22/22
f 35/35/35 36/36/36 37/37/37
f 36/36/36 38/38/38 37/37/37
f 35/35/35 37/37/37 39/39/39
f 40/40/40 35/35/35 39/39/39
f 40/40/40 39/39/39 41/41/41
f 42/42/42 40/40/40 41/41/41
f 42/42/42 41/41/41 43/43/43
f 44/44/44 42/42/42 43/43/43
f 44/44/44 43/43/43 45/45/45
f 46/46/46 44/44/44 45/45/45
f 36/36/36 47/47/47 38/38/38
f 47/47/47 48/48/48 38/38/38
f 47/47/47 49/49/49 48/48/48
f 49/49/49 50/50/50 48/48/48
f 49/49/49 51/51/51 50/50/50
f 51/51/51 52/52/52 50/50/50
f 51/51/51 53/53/53 52/52/52
f 53/53/53 54/54/54 52/52/52
f 53/53/53 55/55/55 54/54/54
f 55/55/55 56/56/56 54/54/54
f 55/55/55 57/57/57 56/56/56
f 57/57/57 58/58/58 56/56/56
f 57/57/57 59/59/59 58/58/58
f 59/59/59 60/60/60 58/58/58
f 59/59/59 61/61/61 60/60/60
f 61/61/61 62/62/62 60/60/60
f 61/61/61 63/63/63 62/62/62
f 63/63/63 64/64/64 62/62/62
f 63/63/63 65/65/65 64/64/64
f 65/65/65 66/66/66 64/64/64
f 62/62/62 64/64/64 67/67/67
f 64/64/64 68/68/68 67/67/67
f 64/64/64 66/66/66 68/68/68
f 69/69/69 67/67/67 68/68/68
f 69/69/69 70/70/70 67/67/67
f 70/70/70 71/71/71 67/67/67
f 62/62/62 67/67/67 71/71/71
f 60/60/60 62/62/62 71/71/71
f 70/70/70 72/72/72 71/71/71
f 72/72/72 73/73/73 71/71/71
f 60/60/60 71/71/71 73/73/73
f 58/58/58 60/60/60 73/73/73
f 72/72/72 74/74/74 73/73/73
f 74/74/74 75/75/75 73/73/73
f 74/74/74 76/76/76 75/75/75
f 76/76/76 77/77/77 75/75/75
f 78/78/78 69/69/69 68/68/68
f 76/76/76 79/79/79 77/77/77
f 79/79/79 80/80/80 77/77/77
f 79/79/79 81/81/81 80/80/80
f 81/81/81 82/82/82 80/80/80
f 81/81/81 83/83/83 82/82/82
f 83/83/83 84/84/84 82/82/82
f 84/84/84 83/83/83 85/85/85
f 83/83/83 86/86/86 85/85/85
f 86/86/86 87/87/87 85/85/85
f 87/87/87 88/88/88 85/85/85
f 87/87/87 89/89/89 88/88/88
f 89/89/89 90/90/90 88/88/88
f 89/89/89 91/91/91 90/90/90
f 91/91/91 92/92/92 90/90/90
f 91/91/91 93/93/93 92/92/92
f 93/93/93 94/94/94 92/92/92
f 93/93/93 95/95/95 94/94/94
f 95/95/95 96/96/96 94/94/94
f 95/95/95 97/97/97 96/96/96
f 97/97/97 98/98/98 96/96/96
f 38/38/38 85/85/85 88/88/88
f 37/37/37 38/38/38 88/88/88
f 37/37/37 88/88/88 90/90/90
f 39/39/39 37/37/37 90/90/90
f 39/39/39 90/90/90 92/92/92
f 41/41/41 39/39/39 92/92/92
f 41/41/41 92/92/92 94/94/94
f 43/43/43 41/41/41 94/94/94
f 43/43/43 94/94/94 96/96/96
f 45/45/45 43/43/43 96/96/96
f 45/45/45 96/96/96 98/98/98
f 99/99/99 45/45/45 98/98/98
f 46/46/46 45/45/45 99/99/99
f 100/100/100 46/46/46 99/99/99
f 46/46/46 100/100/100 31/31/31
f 46/46/46 31/31/31 29/29/29
f 44/44/44 46/46/46 29/29/29
f 44/44/44 29/29/29 27/27/27
f 42/42/42 44/44/44 27/27/27
f 42/42/42 27/27/27 25/25/25
f 40/40/40 42/42/42 25/25/25
f 40/40/40 25/25/25 23/23/23
f 35/35/35 40/40/40 23/23/23
f 100/100/100 33/33/33 31/31/31
f 103/103/103 102/102/102 101/101/101
f 104/104/104 103/103/103 101/101/101
f 102/102/102 105/105/105 101/101/101
f 105/105/105 106/106/106 101/101/101
f 106/106/106 105/105/105 107/107/107
f 105/105/105 108/108/108 107/107/107
f 107/107/107 108/108/108 109/109/109
f 108/108/108 110/110/110 109/109/109
f 109/109/109 110/110/110 111/111/111
f 110/110/110 112/112/112 111/111/111
f 111/111/111 112/112/112 113/113/113
f 112/112/112 114/114/114 113/113/113
f 113/113/113 114/114/114 115/115/115
f 114/114/114 116/116/116 115/115/115
f 115/115/115 116/116/116 117/117/117
f 116/116/116 118/118/118 117/117/117
f 119/119/119 103/103/103 104/104/104
f 120/120/120 119/119/119 104/104/104
f 121/121/121 119/119/119 120/120/120
f 122/122/122 121/121/121 120/120/120
f 123/123/123 121/121/121 122/122/122
f 124/124/124 123/123/123 122/122/122
f 125/125/125 123/123/123 124/124/124
f 126/126/126 125/125/125 124/124/124
f 127/127/127 125/125/125 126/126/126
f 128/128/128 127/127/127 126/126/126
f 129/129/129 127/127/127 128/128/128
f 130/130/130 129/129/129 128/128/128
f 131/131/131 129/129/129 130/130/130
f 132/132/132 131/131/131 130/130/130
f 129/129/129 131/131/131 15/15/15
f 131/131/131 17/17/17 15/15/15
f 129/129/129 15/15/15 13/13/13
f 127/127/127 129/129/129 13/13/13
f 127/127/127 13/13/13 11/11/11
f 125/125/125 127/127/127 11/11/11
f 125/125/125 11/11/11 9/9/9
f 123/123/123 125/125/125 9/9/9
f 123/123/123 9/9/9 1/1/1
f 121/121/121 123/123/123 1/1/1
f 121/121/121 1/1/1 2/2/2
f 119/119/119 121/121/121 2/2/2
f 119/119/119 2/2/2 6/6/6
f 103/103/103 119/119/119 6/6/6
f 103/103/103 6/6/6 8/8/8
f 102/102/102 103/103/103 8/8/8
f 102/102/102 8/8/8 21/21/21
f 105/105/105 102/102/102 21/21/21
f 105/105/105 21/21/21 24/24/24
f 108/108/108 105/105/105 24/24/24
f 108/108/108 24/24/24 26/26/26
f 110/110/110 108/108/108 26/26/26
f 110/110/110 26/26/26 28/28/28
f 112/112/112 110/110/110 28/28/28
f 112/112/112 28/28/28 30/30/30
f 114/114/114 112/112/112 30/30/30
f 114/114/114 30/30/30 32/32/32
f 116/116/116 114/114/114 32/32/32
f 116/116/116 32/32/32 34/34/34
f 118/118/118 116/116/116 34/34/34
f 135/135/135 134/134/134 133/133/133
f 136/136/136 135/135/135 133/133/133
f 135/135/135 136/136/136 137/137/137
f 138/138/138 135/135/135 137/137/137
f 138/138/138 137/137/137 139/139/139
f 140/140/140 138/138/138 139/139/139
f 134/134/134 141/141/141 133/133/133
f 141/141/141 142/142/142 133/133/133
f 141/141/141 143/143/143 142/142/142
f 143/143/143 144/144/144 142/142/142
f 143/143/143 145/145/145 144/144/144
f 145/145/145 146/146/146 144/144/144
f 145/145/145 147/147/147 146/146/146
f 147/147/147 148/148/148 146/146/146
f 147/147/147 149/149/149 148/148/148
f 149/149/149 150/150/150 148/148/148
f 140/140/140 139/139/139 151/151/151
f 152/152/152 140/140/140 151/151/151
f 152/152/152 151/151/151 153/153/153
f 154/154/154 152/152/152 153/153/153
f 154/154/154 153/153/153 155/155/155
f 156/156/156 154/154/154 155/155/155
f 156/156/156 155/155/155 157/157/157
f 158/158/158 156/156/156 157/157/157
f 158/158/158 157/157/157 159/159/159
f 160/160/160 158/158/158 159/159/159
f 160/160/160 159/159/159 161/161/161
f 162/162/162 160/160/160 161/161/161
f 163/163/163 162/162/162 161/161/161
f 164/164/164 163/163/163 161/161/161
f 165/165/165 162/162/162 163/163/163
f 166/166/166 165/165/165 163/163/163
f 167/167/167 152/152/152 154/154/154
f 167/167/167 168/168/168 152/152/152
f 169/169/169 167/167/167 154/154/154
f 169/169/169 154/154/154 156/156/156
f 170/170/170 169/169/169 156/156/156
f 170/170/170 156/156/156 158/158/158
f 171/171/171 170/170/170 158/158/158
f 171/171/171 158/158/158 160/160/160
f 172/172/172 171/171/171 160/160/160
f 172/172/172 160/160/160 162/162/162
f 165/165/165 172/172/172 162/162/162
f 78/78/78 161/161/161 159/159/159
f 69/69/69 78/78/78 159/159/159
f 69/69/69 159/159/159 157/157/157
f 70/70/70 69/69/69 157/157/157
f 70/70/70 157/157/157 155/155/155
f 72/72/72 70/70/70 155/155/155
f 72/72/72 155/155/155 153/153/153
f 74/74/74 72/72/72 153/153/153
f 74/74/74 153/153/153 151/151/151
f 76/76/76 74/74/74 151/151/151
f 76/76/76 151/151/151 139/139/139
f 79/79/79 76/76/76 139/139/139
f 79/79/79 139/139/139 137/137/137
f 81/81/81 79/79/79 137/137/137
f 81/81/81 137/137/137 136/136/136
f 83/83/83 81/81/81 136/136/136
f 83/83/83 136/136/136 133/133/133
f 86/86/86 83/83/83 133/133/133
f 86/86/86 133/133/133 142/142/142
f 87/87/87 86/86/86 142/142/142
f 87/87/87 142/142/142 144/144/144
f 89/89/89 87/87/87 144/144/144
f 89/89/89 144/144/144 146/146/146
f 91/91/91 89/89/89 146/146/146
f 91/91/91 146/146/146 148/148/148
f 93/93/93 91/91/91 148/148/148
f 93/93/93 148/148/148 150/150/150
f 95/95/95 93/93/93 150/150/150
f 95/95/95 150/150/150 173/173/173
f 97/97/97 95/95/95 173/173/173
f 174/174/174 173/173/173 150/150/150
f 149/149/149 174/174/174 150/150/150
f 175/175/175 174/174/174 149/149/149
f 176/176/176 175/175/175 149/149/149
f 176/176/176 149/149/149 147/147/147
f 177/177/177 176/176/176 147/147/147
f 177/177/177 147/147/147 145/145/145
f 178/178/178 177/177/177 145/145/145
f 178/178/178 145/145/145 143/143/143
f 179/179/179 178/178/178 143/143/143
f 179/179/179 143/143/143 141/141/141
f 180/180/180 179/179/179 141/141/141
f 180/180/180 141/141/141 134/134/134
f 181/181/181 180/180/180 134/134/134
f 181/181/181 134/134/134 135/135/135
f 182/182/182 181/181/181 135/135/135
f 182/182/182 135/135/135 138/138/138
f 183/183/183 182/182/182 138/138/138
f 183/183/183 138/138/138 140/140/140
f 168/168/168 183/183/183 140/140/140
f 168/168/168 140/140/140 152/152/152
f 184/184/184 78/78/78 68/68/68
f 185/185/185 184/184/184 68/68/68
f 66/66/66 185/185/185 68/68/68
f 78/78/78 184/184/184 161/161/161
f 184/184/184 164/164/164 161/161/161
f 52/52/52 80/80/80 82/82/82
f 50/50/50 52/52/52 82/82/82
f 50/50/50 82/82/82 84/84/84
f 48/48/48 50/50/50 84/84/84
f 48/48/48 84/84/84 85/85/85
f 38/38/38 48/48/48 85/85/85
f 52/52/52 54/54/54 80/80/80
f 54/54/54 77/77/77 80/80/80
f 54/54/54 56/56/56 77/77/77
f 56/56/56 75/75/75 77/77/77
f 56/56/56 58/58/58 75/75/75
f 58/58/58 73/73/73 75/75/75
f 49/49/49 5/5/5 3/3/3
f 51/51/51 49/49/49 3/3/3
f 49/49/49 47/47/47 5/5/5
f 47/47/47 7/7/7 5/5/5
f 47/47/47 36/36/36 7/7/7
f 36/36/36 22/22/22 7/7/7
f 51/51/51 3/3/3 4/4/4
f 53/53/53 51/51/51 4/4/4
f 53/53/53 4/4/4 10/10/10
f 55/55/55 53/53/53 10/10/10
f 55/55/55 10/10/10 12/12/12
f 57/57/57 55/55/55 12/12/12
f 57/57/57 12/12/12 14/14/14
f 59/59/59 57/57/57 14/14/14
f 59/59/59 14/14/14 16/16/16
f 61/61/61 59/59/59 16/16/16
f 61/61/61 16/16/16 18/18/18
f 63/63/63 61/61/61 18/18/18
f 63/63/63 18/18/18 19/19/19
f 65/65/65 63/63/63 19/19/19
f 186/186/186 20/20/20 17/17/17
f 131/131/131 186/186/186 17/17/17
f 186/186/186 131/131/131 187/187/187
f 131/131/131 132/132/132 187/187/187
